# xmcd
#
# Track frame offsets:
#	150
#	20820
#	40807
#	58935
#	73702
#	95152
#	119497
#	139147
#	154982
#	172312
#	194062
#	219360
#	236392
#	249450
#	266617
#	284857
#
# Disc length: 4074
#
# Revision: 1
# Processed by: cddbd v1.5.1PL0 Copyright (c) Steve Scherf et al.
# Submitted via: CD-DA_X-Tractor v0.21
# Normalized: r0:TDELIM( - )
#
DISCID=0a0fe810
DTITLE=Various Artist - I do
DYEAR=1900
DGENRE=
TTITLE0=Boyzone - No Matter What
TTITLE1=Lionel Riche and Diana Ross - Endless Love
TTITLE2=Boyz II Men - I'll Make Love To You
TTITLE3=Bee Gees - Words
TTITLE4=Kool and The Gang - Cherish
TTITLE5=K-Cl and Jojo - All My Life
TTITLE6=Michael Ball - Because You Loved Me
TTITLE7=INXS - Beautiful Girl
TTITLE8=Gleen Medeiros - Nothing's Gonna Change My Love For You
TTITLE9=Barry White - Just The Way You Are
TTITLE10=Extreme - More Than Words
TTITLE11=98 Degrees - I Do
TTITLE12=Stevie Wonder - My Cherie Amour
TTITLE13=Let Loose - Make It With You
TTITLE14=Code Red - This Is Our Song
TTITLE15=Paul Carrack - Love Will Keep Us Alive
EXTD=
EXTT0=
EXTT1=
EXTT2=
EXTT3=
EXTT4=
EXTT5=
EXTT6=
EXTT7=
EXTT8=
EXTT9=
EXTT10=
EXTT11=
EXTT12=
EXTT13=
EXTT14=
EXTT15=
PLAYORDER=
